<svg width="37" height="30" viewBox="0 0 37 30" fill="none" xmlns="http://www.w3.org/2000/svg">
<path d="M8.33579 11.848C10.5046 11.848 12.2686 9.1904 12.2686 5.9236C12.2686 2.6576 10.5046 0 8.33579 0C6.16699 0 4.40259 2.6576 4.40259 5.9236C4.40259 9.1904 6.16739 11.848 8.33579 11.848Z" fill="white"/>
<path d="M27.0502 11.848C29.219 11.848 30.9834 9.1904 30.9834 5.9236C30.9834 2.6576 29.219 0 27.0502 0C24.8818 0 23.1178 2.6576 23.1178 5.9236C23.1178 9.1904 24.8822 11.848 27.0502 11.848Z" fill="white"/>
<path d="M35.1256 16.5888C34.8764 16.3756 34.533 16.3512 34.2695 16.5327C30.0388 19.4234 24.2994 21.4339 18.1076 22.1941C11.9172 22.9542 5.86149 22.392 1.0569 20.6111C0.757077 20.5 0.428857 20.6056 0.24013 20.8726C0.050353 21.1401 0.0410122 21.512 0.216657 21.7983C2.82258 26.0529 10.4377 28.3121 18.734 27.2934C27.0337 26.2743 33.8763 22.2388 35.3734 17.4808C35.4738 17.161 35.374 16.8021 35.1256 16.5888Z" fill="white"/>
</svg>
